<svg width="44" height="41" viewBox="0 0 44 41" fill="none" xmlns="http://www.w3.org/2000/svg">
<g filter="url(#filter0_d_562_2337)">
<path d="M9.95681 20.276C9.95681 20.276 8.87539 20.8873 8.87698 22.5321C8.87548 22.7011 8.95537 22.8546 9.10077 22.9534C9.3431 23.1181 9.6819 23.0366 9.82721 22.7811C10.1477 22.2054 10.8254 21.2915 12.0136 21.107L9.95681 20.276Z" fill="url(#paint0_linear_562_2337)"/>
<path d="M18.7842 7.28766C18.7842 7.28766 18.9545 6.05718 20.4844 5.45319C20.641 5.38958 20.8132 5.40736 20.9586 5.50618C21.2009 5.67087 21.2498 6.01588 21.0657 6.24504C20.6484 6.75492 20.0481 7.72152 20.314 8.89412L18.7842 7.28766Z" fill="url(#paint1_linear_562_2337)"/>
<path d="M13.9426 3.71325C12.6001 3.35347 11.0307 4.36994 9.68077 5.5639C7.63284 7.38877 6.05837 9.70546 5.12517 12.2879C4.5317 13.9535 4.17709 15.8097 4.92751 16.9573C4.92751 16.9573 5.51626 18.0093 7.23196 19.1753C8.44362 19.9988 18.2396 26.3729 19.4027 27.1634C20.9924 28.2438 25.1721 30.8719 29.3166 33.8019C31.1901 35.1319 34.1358 32.8826 36.7709 29.0053C39.4059 25.128 40.4129 21.5613 38.582 20.1894C34.5232 17.1334 30.3501 14.4957 28.7604 13.4153C27.5972 12.6248 18.0648 5.86293 16.8531 5.03946C15.1374 3.87343 13.9426 3.71325 13.9426 3.71325Z" fill="url(#paint2_linear_562_2337)"/>
<path d="M22.2315 15.4946C22.2315 15.4946 19.1901 19.0108 18.1327 22.7558C18.1327 22.7558 25.8969 27.324 29.2522 33.8129C29.2522 33.8129 31.7728 35.4835 35.7935 30.4223C36.4608 29.5863 37.0216 28.6779 37.5241 27.7299C38.5358 25.8243 38.4229 20.9863 38.475 20.2424C38.475 20.2424 31.18 17.3818 23.9752 13.8881C23.9752 13.8881 22.9419 14.5745 22.2315 15.4946Z" fill="url(#paint3_linear_562_2337)"/>
<path d="M13.7768 13.2772C11.919 16.0107 10.9465 19.36 10.9465 19.36L17.3952 22.3398C17.6175 21.4706 18.9147 18.8946 19.5483 17.8373C19.7265 17.5334 19.9242 17.2426 20.1478 16.9552C20.8879 15.9704 22.8055 13.816 23.5416 13.296L18.3972 8.3969C18.3906 8.40659 15.6345 10.5437 13.7768 13.2772Z" fill="#093351"/>
<path d="M34.3461 27.2579C36.856 23.5648 37.1764 21.1752 37.1764 21.1752L32.7512 19.4714C32.5289 20.3406 31.2754 22.7479 30.426 23.9561C30.2284 24.2469 30.0501 24.5508 29.8265 24.8382C29.0863 25.823 27.2087 28.2313 26.3866 28.5653L29.7257 32.1382C29.7323 32.1285 31.744 31.0868 34.3461 27.2579Z" fill="#093351"/>
<mask id="mask0_562_2337" style="mask-type:alpha" maskUnits="userSpaceOnUse" x="26" y="19" width="12" height="14">
<path d="M34.3459 27.2579C36.8558 23.5648 37.1761 21.1752 37.1761 21.1752L32.7509 19.4714C32.5286 20.3406 31.2752 22.7479 30.4257 23.9561C30.2281 24.2469 30.0499 24.5508 29.8263 24.8382C29.0861 25.823 27.2085 28.2313 26.3863 28.5653L29.7254 32.1382C29.732 32.1285 31.7437 31.0868 34.3459 27.2579Z" fill="#4D668A"/>
</mask>
<g mask="url(#mask0_562_2337)">
<ellipse cx="30.0375" cy="24.6024" rx="5.35602" ry="3.50427" transform="rotate(-55.7992 30.0375 24.6024)" fill="url(#paint4_linear_562_2337)"/>
</g>
<path d="M10.7339 20.9039C10.7339 20.9039 22.608 29.7248 27.5527 31.4982C27.5527 31.4982 20.2564 23.6771 10.7339 20.9039Z" fill="#093351"/>
<path d="M19.6665 7.76042C19.6665 7.76042 32.2389 15.5538 35.7079 19.4985C35.7079 19.4985 25.7568 15.5838 19.6665 7.76042Z" fill="#093351"/>
<path opacity="0.32" d="M14.1885 13.7564C14.1885 13.7564 16.9384 10.1272 18.5672 9.37783L22.6317 13.2596C22.6317 13.2596 19.0579 16.3289 18.0054 19.5246C18.012 19.5149 17.7219 15.9594 14.1885 13.7564Z" fill="url(#paint5_linear_562_2337)"/>
<path d="M26.3371 28.6171C26.3371 28.6171 30.3049 26.1982 32.7412 19.4651C32.7509 19.4717 29.1788 26.354 26.3371 28.6171Z" fill="#1670D8"/>
<path d="M11.4954 6.8969C9.89613 7.6238 8.54451 9.73768 8.54451 9.73768C8.54451 9.73768 7.06689 11.7659 6.98943 13.5271C6.90227 15.2817 10.1205 19.2827 10.1205 19.2827C10.1205 19.2827 11.4217 15.5332 13.207 12.9064C14.9857 10.2892 17.9994 7.68953 17.9994 7.68953C17.9994 7.68953 13.1044 6.17659 11.4954 6.8969Z" fill="url(#paint6_linear_562_2337)"/>
<path d="M29.4616 32.8799C29.4616 32.8799 30.0278 33.5481 30.9706 33.537C31.8191 33.5186 33.5943 32.3869 34.2861 31.7234C34.3648 31.6494 34.3303 31.5125 34.2167 31.492C33.9019 31.434 33.3471 31.312 32.8807 31.1226C32.4887 30.9695 32.0426 31.0631 31.7473 31.3725C31.1698 31.972 30.2063 32.8476 29.4616 32.8799Z" fill="url(#paint7_linear_562_2337)"/>
<path d="M30.291 32.8904C30.291 32.8904 31.3201 32.3145 31.97 31.6084C32.1866 31.373 32.506 31.2783 32.8077 31.3558L32.8174 31.3624C33.0573 31.4263 33.3361 31.5165 33.5435 31.5866C33.6959 31.6335 33.7265 31.8386 33.5924 31.9316C32.9739 32.404 31.1375 33.8342 30.291 32.8904Z" fill="white"/>
<path d="M37.7708 20.361C37.7708 20.361 38.6004 20.6414 38.9372 21.5221C39.2324 22.3179 38.8336 24.385 38.4714 25.2725C38.4315 25.3729 38.2916 25.3912 38.2307 25.2931C38.0608 25.0218 37.7432 24.5508 37.3954 24.1869C37.1088 23.8788 37.0315 23.4295 37.2105 23.041C37.565 22.2901 38.0245 21.0719 37.7708 20.361Z" fill="url(#paint8_linear_562_2337)"/>
<path d="M38.0952 21.1358C38.0952 21.1358 37.9385 22.3047 37.5212 23.1689C37.3821 23.4569 37.4116 23.7888 37.5947 24.0407L37.6044 24.0473C37.7521 24.2469 37.9386 24.4728 38.0802 24.6399C38.1798 24.7643 38.3818 24.7173 38.419 24.5584C38.6304 23.8094 39.2842 21.5755 38.0952 21.1358Z" fill="white"/>
<path d="M14.5561 4.66809C14.5561 4.66809 13.9899 3.9999 13.0472 4.011C12.1986 4.02944 10.4234 5.1611 9.73157 5.82457C9.65289 5.89864 9.68743 6.03547 9.80102 6.05599C10.1158 6.11406 10.6706 6.23603 11.137 6.42547C11.529 6.5785 11.9751 6.48495 12.2705 6.17552C12.8382 5.56946 13.7951 4.70356 14.5561 4.66809Z" fill="url(#paint9_linear_562_2337)"/>
<path d="M13.7208 4.66637C13.7208 4.66637 12.6917 5.24232 12.0418 5.94842C11.8251 6.18379 11.5057 6.27846 11.2041 6.201L11.1944 6.19442C10.9544 6.13051 10.6757 6.04026 10.4683 5.97015C10.3159 5.92328 10.2852 5.71822 10.4193 5.62514C11.0282 5.14622 12.8646 3.71605 13.7208 4.66637Z" fill="white"/>
<path d="M6.22985 17.189C6.22985 17.189 5.40018 16.9085 5.06346 16.0278C4.76824 15.2321 5.16699 13.1649 5.52923 12.2775C5.56913 12.1771 5.70907 12.1588 5.76996 12.2569C5.93983 12.5282 6.25744 12.9991 6.60527 13.363C6.89183 13.6712 6.96909 14.1204 6.7901 14.5089C6.43558 15.2599 5.99241 16.475 6.22985 17.189Z" fill="url(#paint10_linear_562_2337)"/>
<path d="M5.92066 16.4135C5.92066 16.4135 6.07736 15.2446 6.49465 14.3804C6.63374 14.0924 6.60419 13.7605 6.42115 13.5086L6.41146 13.502C6.26371 13.3024 6.07718 13.0764 5.93564 12.9094C5.83598 12.785 5.63402 12.8319 5.59685 12.9909C5.38538 13.7399 4.725 15.9835 5.92066 16.4135Z" fill="white"/>
</g>
<defs>
<filter id="filter0_d_562_2337" x="0.501953" y="1.64062" width="43.0115" height="38.5449" filterUnits="userSpaceOnUse" color-interpolation-filters="sRGB">
<feFlood flood-opacity="0" result="BackgroundImageFix"/>
<feColorMatrix in="SourceAlpha" type="matrix" values="0 0 0 0 0 0 0 0 0 0 0 0 0 0 0 0 0 0 127 0" result="hardAlpha"/>
<feOffset dy="2"/>
<feGaussianBlur stdDeviation="2"/>
<feColorMatrix type="matrix" values="0 0 0 0 0.486397 0 0 0 0 0.535878 0 0 0 0 0.612857 0 0 0 0.5 0"/>
<feBlend mode="normal" in2="BackgroundImageFix" result="effect1_dropShadow_562_2337"/>
<feBlend mode="normal" in="SourceGraphic" in2="effect1_dropShadow_562_2337" result="shape"/>
</filter>
<linearGradient id="paint0_linear_562_2337" x1="7.09572" y1="25.2932" x2="12.9948" y2="26.7451" gradientUnits="userSpaceOnUse">
<stop offset="0.2026" stop-color="#1D92FF"/>
<stop offset="0.9347" stop-color="#7CC8FF"/>
</linearGradient>
<linearGradient id="paint1_linear_562_2337" x1="16.2983" y1="7.11829" x2="19.8197" y2="12.0687" gradientUnits="userSpaceOnUse">
<stop offset="0.2026" stop-color="#228BEB"/>
<stop offset="0.9347" stop-color="#FEFEFE"/>
</linearGradient>
<linearGradient id="paint2_linear_562_2337" x1="33.3853" y1="3.97207" x2="3.13444" y2="20.8574" gradientUnits="userSpaceOnUse">
<stop stop-color="#298CFF"/>
<stop offset="1" stop-color="#34AAFF"/>
</linearGradient>
<linearGradient id="paint3_linear_562_2337" x1="12.9702" y1="31.6039" x2="27.0343" y2="28.4116" gradientUnits="userSpaceOnUse">
<stop stop-color="white"/>
<stop offset="1" stop-color="white" stop-opacity="0.01"/>
</linearGradient>
<linearGradient id="paint4_linear_562_2337" x1="12.0109" y1="18.6017" x2="17.5422" y2="33.0505" gradientUnits="userSpaceOnUse">
<stop stop-color="white"/>
<stop offset="1" stop-color="white" stop-opacity="0.01"/>
</linearGradient>
<linearGradient id="paint5_linear_562_2337" x1="18.2634" y1="19.6848" x2="23.1537" y2="12.4891" gradientUnits="userSpaceOnUse">
<stop stop-color="white"/>
<stop offset="1" stop-color="white" stop-opacity="0.01"/>
</linearGradient>
<linearGradient id="paint6_linear_562_2337" x1="-5.1057" y1="28.7762" x2="9.11004" y2="33.3943" gradientUnits="userSpaceOnUse">
<stop stop-color="white"/>
<stop offset="1" stop-color="white" stop-opacity="0.01"/>
</linearGradient>
<linearGradient id="paint7_linear_562_2337" x1="28.6032" y1="35.5229" x2="34.0386" y2="35.6469" gradientUnits="userSpaceOnUse">
<stop offset="0.2026" stop-color="#4EAAFF"/>
<stop offset="0.9347" stop-color="#6CA7FF"/>
</linearGradient>
<linearGradient id="paint8_linear_562_2337" x1="34.6464" y1="20.8241" x2="36.7625" y2="25.8322" gradientUnits="userSpaceOnUse">
<stop stop-color="#44B0FF"/>
<stop offset="0.9347" stop-color="#FEFFFF"/>
</linearGradient>
<linearGradient id="paint9_linear_562_2337" x1="15.4027" y1="2.02512" x2="9.96722" y2="1.90111" gradientUnits="userSpaceOnUse">
<stop offset="0.2026" stop-color="#469FF1"/>
<stop offset="0.9347" stop-color="#83C3FF"/>
</linearGradient>
<linearGradient id="paint10_linear_562_2337" x1="9.3586" y1="16.7228" x2="7.24253" y2="11.7146" gradientUnits="userSpaceOnUse">
<stop offset="0.0416667" stop-color="#1D71F0"/>
<stop offset="0.994792" stop-color="#E8F0F4"/>
</linearGradient>
</defs>
</svg>
