<svg width="24" height="24" viewBox="0 0 24 24" fill="none" xmlns="http://www.w3.org/2000/svg">
<ellipse cx="12" cy="21" rx="6" ry="2" fill="#AEBEC8" fill-opacity="0.38"/>
<path fill-rule="evenodd" clip-rule="evenodd" d="M13 17.8212C13 17.3167 13.3782 16.898 13.8688 16.7806C17.3856 15.9389 20 12.7748 20 9C20 4.58172 16.4183 1 12 1C7.58172 1 4 4.58172 4 9C4 12.7748 6.61438 15.9389 10.1312 16.7806C10.6218 16.898 11 17.3167 11 17.8212V20C11 20.5523 11.4477 21 12 21C12.5523 21 13 20.5523 13 20V17.8212Z" fill="#FFC229"/>
<path d="M10.1312 16.7806L10.0149 17.2668L10.1312 16.7806ZM19.5 9C19.5 12.5382 17.0494 15.5053 13.7524 16.2943L13.9851 17.2668C17.7218 16.3726 20.5 13.0114 20.5 9H19.5ZM12 1.5C16.1421 1.5 19.5 4.85786 19.5 9H20.5C20.5 4.30558 16.6944 0.5 12 0.5V1.5ZM4.5 9C4.5 4.85786 7.85786 1.5 12 1.5V0.5C7.30558 0.5 3.5 4.30558 3.5 9H4.5ZM10.2476 16.2943C6.95056 15.5053 4.5 12.5382 4.5 9H3.5C3.5 13.0114 6.27821 16.3726 10.0149 17.2668L10.2476 16.2943ZM11.5 20V17.8212H10.5V20H11.5ZM12 20.5C11.7239 20.5 11.5 20.2761 11.5 20H10.5C10.5 20.8284 11.1716 21.5 12 21.5V20.5ZM12.5 20C12.5 20.2761 12.2761 20.5 12 20.5V21.5C12.8284 21.5 13.5 20.8284 13.5 20H12.5ZM12.5 17.8212V20H13.5V17.8212H12.5ZM10.0149 17.2668C10.3136 17.3383 10.5 17.5804 10.5 17.8212H11.5C11.5 17.053 10.93 16.4576 10.2476 16.2943L10.0149 17.2668ZM13.7524 16.2943C13.07 16.4576 12.5 17.053 12.5 17.8212H13.5C13.5 17.5804 13.6864 17.3383 13.9851 17.2668L13.7524 16.2943Z" fill="white"/>
<circle cx="12" cy="9" r="2.5" fill="white" stroke="white"/>
</svg>
