<?xml version="1.0" encoding="UTF-8"?>
<svg width="24px" height="24px" viewBox="0 0 24 24" version="1.1" xmlns="http://www.w3.org/2000/svg" xmlns:xlink="http://www.w3.org/1999/xlink">
    <!-- Generator: Sketch 64 (93537) - https://sketch.com -->
    <title>消息</title>
    <desc>Created with Sketch.</desc>
    <g id="3.0" stroke="none" stroke-width="1" fill="none" fill-rule="evenodd">
        <g id="公共切图" transform="translate(-1788.000000, -123.000000)" fill="#FFFFFF" fill-rule="nonzero">
            <g id="navbar" transform="translate(56.000000, 95.000000)">
                <g id="消息-2" transform="translate(1732.000000, 23.000000)">
                    <g id="消息" transform="translate(0.000000, 5.000000)">
                        <rect id="矩形" opacity="0.01" x="0" y="0" width="24" height="24"></rect>
                        <path d="M21.4598695,6.69236197 L21.4598695,20.7664491 L5.99894161,20.7664491 C4.08961015,20.7664491 2.54013054,19.2169695 2.54013054,17.307638 L2.54013054,6.69236197 C2.54013054,4.78303051 4.08961017,3.2335509 5.99894161,3.2335509 L18.0010584,3.2335509 C19.9103899,3.2335509 21.4598695,4.78726407 21.4598695,6.69236197 Z M18.0010584,0.693420359 L5.99894161,0.693420359 C2.6883048,0.693420359 0,3.38172516 0,6.69236197 L0,17.307638 C0,20.6225084 2.6883048,23.3065796 5.99894161,23.3065796 L24,23.3065796 L24,6.69236197 C24,3.38172516 21.3159287,0.693420359 18.0010584,0.693420359 Z" id="形状"></path>
                        <path d="M14.5295467,10.7405186 L9.47468688,10.7405186 C8.78038453,10.7405186 8.21308873,11.3035809 8.21308873,12.0021168 C8.21308873,12.7006527 8.77615099,13.2637149 9.47468688,13.2637149 L14.5295467,13.2637149 C15.223849,13.2637149 15.7911448,12.7006527 15.7911448,12.0021168 C15.7911448,11.3035809 15.223849,10.7405186 14.5295467,10.7405186 Z" id="路径"></path>
                    </g>
                </g>
            </g>
        </g>
    </g>
</svg>