<svg  viewBox="0 0 130 54" fill="none" xmlns="http://www.w3.org/2000/svg">
<path fill-rule="evenodd" clip-rule="evenodd" d="M0.650626 35.1641L0.0558991 35.4678C-0.836191 21.7962 8.97362 15.7108 34.5488 13.2894C40.019 12.7718 44.937 10.2798 50.2434 7.59113C60.5134 2.38727 72.238 -3.55389 92.2356 2.65582C96.1138 3.8609 100.063 5.57819 103.698 7.15851C107.368 8.75421 110.717 10.2103 113.348 10.8589C120.541 12.6331 125.666 11.6585 128.548 11.1102C129.121 11.0013 129.605 10.9092 130 10.8589L128.81 12.378C118.762 17.2305 110.197 14.0714 100.73 10.5797C94.0642 8.12067 86.9507 5.49689 78.5571 5.3902C65.852 5.22809 59.0845 8.87897 52.4556 12.4549C46.6731 15.5745 40.9961 18.6373 31.5754 19.0618C4.78075 20.2711 1.54272 31.2298 0.650626 35.1641ZM16.4109 26.9605H12.8428L10.7842 29.9986H7.19311L5.70629 32.429H9.13744L4.8142 38.8094V41.5438H13.9197L13.165 45.4932H2.43529L1.24584 47.9236H12.7009L11.6206 53.5777L15.2483 51.8856L15.99 47.9236L25.04 47.9239L27.4128 47.9236L27.7163 47.9239L30.105 37.2903H51.5769L50.904 40.3284H53.8777L54.9658 35.1636H43.073L43.1191 33.9483H39.2537L39.2075 35.1636H30.5828H28.2038L25.6428 45.4932H16.4451L17.1843 41.5438H24.4394L25.3315 38.8094H17.6963L18.4924 34.556L15.2541 34.5589L14.4421 38.8094H8.67968L12.8428 32.429H27.1157L28.3052 29.9986H14.4285L16.4109 26.9605ZM35.3581 26.9605C35.3581 26.9605 33.4106 31.2139 30.104 32.1253L30.0564 33.3406H32.1379C32.1379 33.3406 34.363 33.0176 36.2302 30.6063H37.0032L36.8987 33.3406L39.9079 32.4293L39.9768 30.6063H42.9497L43.925 28.4796H37.4792C37.6821 28.0179 37.8682 27.5128 38.0315 26.9605H35.3581ZM42.593 32.1253C45.8996 31.2139 47.8472 26.9605 47.8472 26.9605H50.5205C50.3572 27.5128 50.1711 28.0179 49.9683 28.4796H56.4138L55.4385 30.6063H52.4656L52.3967 32.4293L49.3874 33.3406L49.4919 30.6063H48.7192C46.852 33.0176 44.6269 33.3406 44.6269 33.3406H42.5454L42.593 32.1253ZM31.6562 53.6964H28.98L31.9297 38.8094H32.5246H34.6059H50.0684V38.8123L49.1882 43.2662C48.9265 44.5574 47.8086 45.4932 46.5268 45.4932H33.2817L33.041 46.7086H49.1702L49.1704 46.7115L48.2903 51.1653C48.0286 52.4566 46.9106 53.3924 45.6289 53.3924H31.7165L31.6562 53.6964ZM32.6194 48.8353H46.3484L45.959 50.7645C45.9353 50.8768 45.8342 50.962 45.7212 50.962H32.198L32.6194 48.8353ZM34.1846 40.9361H47.2463L46.8569 42.8653C46.8332 42.9776 46.7322 43.0628 46.6191 43.0628H33.7632L34.1846 40.9361ZM99.6699 32.1256H87.803C87.7087 32.3345 87.6125 32.543 87.5144 32.751C87.3725 33.0513 87.227 33.3499 87.0786 33.6463C86.821 34.1602 86.5544 34.6671 86.2834 35.1636H102.697L105.32 29.3912H107.996H113.623L114.538 26.9605H118.7L117.785 29.3912H125.242H127.621H127.918L124.648 36.379H121.971L117.808 36.3787C117.341 36.7847 116.863 37.1624 116.378 37.514C116.008 37.7818 115.635 38.0347 115.26 38.273L115.834 38.7759C116.524 39.3775 116.916 40.2647 116.905 41.1912C116.872 43.5518 116.753 48.1517 116.322 50.3543C115.947 52.2713 114.859 53.1009 114.109 53.4503C113.75 53.6204 113.354 53.6964 112.959 53.6964H108.293L109.185 51.2657H111.805C112.148 51.2657 112.477 51.0394 112.735 50.7423C112.911 50.5394 113.054 50.3033 113.146 50.0838C113.348 49.5916 113.348 49.139 113.348 49.139L113.396 47.9461C107.875 51.4359 100.859 52.1773 100.859 52.1773L101.157 50.3543C107.127 49.1343 111.366 46.5535 113.517 44.9798L113.586 43.2701C108.249 46.6551 102.644 47.3162 102.644 47.3162L102.941 45.4932C108.593 43.8087 112.194 41.5526 113.447 40.6871C113.302 40.2977 113.083 39.9405 112.8 39.6378C108.257 41.8272 104.13 42.1514 104.13 42.1514L105.32 39.7208C109.341 38.9957 112.61 37.1165 113.779 36.3787H106.806L107.996 33.9483H123.109L123.962 32.1256H106.753L104.13 37.898H101.454H84.6907C84.3762 38.4073 84.0666 38.8931 83.7681 39.3504L83.552 39.6793L83.3486 39.9854L83.2805 40.0872C83.0796 40.3868 82.886 40.6705 82.7024 40.9361H97.5884V43.3665C96.5444 44.4334 92.8608 47.5977 90.7598 49.3875C91.7143 49.7659 92.7041 50.1881 93.7229 50.658V53.6964C93.7229 53.6964 87.1811 49.7466 77.6658 48.2276V46.1009C77.6658 46.1009 81.8362 46.286 88.0535 48.3926L93.5 43.3665H80.9368H78.5579H77.9631L78.5579 40.9361C79.4202 39.9571 80.1975 38.931 80.895 37.898H76.1789L77.071 35.1636H82.5649C82.8096 34.721 83.0398 34.284 83.2559 33.856C83.3396 33.6902 83.4211 33.5259 83.5007 33.3631C83.5779 33.2051 83.6531 33.0486 83.7263 32.8939C83.8498 32.6329 83.9678 32.3765 84.0803 32.1256H77.6658L78.5579 29.3912H85.1963C85.7429 27.9046 85.9917 26.9605 85.9917 26.9605H89.5598C89.3979 27.754 89.1694 28.5687 88.8904 29.3912H100.562L99.6699 32.1256ZM125.242 41.5435H121.674V44.7823C121.674 45.6573 121.903 46.5172 122.352 47.2645C123.494 49.1634 125.242 50.3543 125.242 50.3543V52.481C120.871 50.4727 119.394 47.6412 118.915 46.283C118.772 45.876 118.701 45.4537 118.701 45.0223V41.5435V39.1131H126.432L125.242 41.5435Z" fill="#1C82F2"/>
<path d="M65.2512 26.3528C60.2437 26.3528 56.1819 30.5029 56.1819 35.6191C56.1819 40.7354 65.3998 53.9999 65.3998 53.9999C65.3998 53.9999 74.3205 40.7354 74.3205 35.6191C74.3205 30.5029 70.2586 26.3528 65.2512 26.3528ZM65.2512 40.6321C62.6226 40.6321 60.4935 38.4568 60.4935 35.771C60.4935 33.0853 62.6226 30.91 65.2512 30.91C67.8798 30.91 70.0088 33.0853 70.0088 35.771C70.0088 38.4568 67.8768 40.6321 65.2512 40.6321Z" fill="#FF8A29"/>
</svg>
