<?xml version="1.0" encoding="UTF-8"?>
<svg width="16px" height="16px" viewBox="0 0 16 16" version="1.1" xmlns="http://www.w3.org/2000/svg" xmlns:xlink="http://www.w3.org/1999/xlink">
    <title>重点人员n</title>
    <g id="重点人员n" stroke="none" stroke-width="1" fill="none" fill-rule="evenodd">
        <g id="编组">
            <rect id="矩形" opacity="0" x="0" y="0" width="16" height="16"></rect>
            <path d="M7.28661376,9.52872124 L2.41989187,14.2145446 C1.86567186,13.8436588 1.76745639,13.6534521 1.75210647,13.4407787 L1.75210647,13.4407787 L2.03887836,11.9129739 C2.18070246,11.2405567 2.55483382,10.6612915 3.0688174,10.2426411 C3.59247041,9.8161148 4.26110985,9.55564247 4.98323848,9.52988868 L4.98323848,9.52988868 L7.28661376,9.52872124 Z M8.44965278,1.75 C8.6974481,1.75 8.92460656,1.84316479 9.09785162,1.99865436 C9.26728412,2.15072212 9.38495465,2.3614985 9.42442058,2.60249041 L9.42442058,2.60249041 L9.4375,5.98814815 C9.4375,6.24126291 9.34466028,6.47369132 9.18836746,6.65079899 C9.03921082,6.81982009 8.83281529,6.93805038 8.59632576,6.97765352 L8.59632576,6.97765352 L6.31076389,6.99074074 C6.06296857,6.99074074 5.83581011,6.89757595 5.66256505,6.74208638 C5.49299849,6.58989831 5.37527584,6.37890867 5.33590256,6.13767826 L5.33590256,6.13767826 L5.32291667,3.83111111 C5.32291667,3.2908476 5.52692329,2.79696373 5.86454268,2.42590405 C6.19632153,2.0612634 6.65693921,1.8153553 7.17829703,1.76082782 L7.17829703,1.76082782 Z" id="身份信息-白" stroke="#4B4B4B" stroke-width="1.5"></path>
            <path d="M11.402,9.799 L11.5656155,10.1304466 L11.5656155,10.1304466 L11.9933256,11.0076133 L13.1241654,11.2888699 C13.2010894,11.671682 13.0408302,11.8317427 12.8805658,11.9890852 C12.5480744,13.0745397 12.6001572,13.3279523 12.6461662,13.5538029 C12.6884855,13.7615421 12.7311034,13.969232 12.7628437,14.187364 L12.715,13.91 L12.5677312,13.8650766 C11.0118466,13.3966444 10.735747,13.5255074 10.5616751,13.629423 L10.5212538,13.6535651 L10.5212538,13.6535651 L10.5013817,13.6646796 C10.3140609,13.764746 10.1267461,13.8648237 9.93288733,13.9656351 L10.115,13.869 L10.1265794,13.7849161 C10.182998,13.354729 10.2089316,13.1692346 10.2298072,13.0245259 L10.241929,12.9409637 C9.95925387,12.0278786 9.70327515,11.7726275 9.44488876,11.5189518 L9.44488876,11.5189518 L9.28,11.357 L9.55090415,11.3052731 L11.3818919,9.84471753 L11.3818919,9.84471753 L11.402,9.799 Z" id="路径" stroke="#36A4FF" stroke-width="1.2"></path>
        </g>
    </g>
</svg>